<svg width="20" height="21" viewBox="0 0 20 21" fill="none" xmlns="http://www.w3.org/2000/svg">
<path d="M10.3546 12.6507C10.6391 12.8902 10.8741 13.0674 11.0669 13.1967L11.0074 13.4495C10.7645 13.2938 10.4877 13.0869 10.1824 12.8278C9.79449 12.4964 9.37106 12.1058 8.85377 11.5968C8.45398 11.1887 8.05402 10.7561 7.63736 10.2741C7.26749 9.8412 7.01386 9.48848 6.86143 9.21187L6.78438 9.01925C6.74644 8.86935 6.7415 8.81137 6.7415 8.75835C6.7415 8.5871 6.79985 8.44878 6.91172 8.33691L6.91179 8.33698L6.91859 8.32991L7.5403 7.68332C7.72572 7.49744 7.87762 7.30875 7.98671 7.12431C8.09041 6.95439 8.14984 6.77461 8.14984 6.58335C8.14984 6.42218 8.09785 6.25191 8.04471 6.12438L8.04478 6.12435L8.04125 6.11628C7.96355 5.93867 7.85041 5.75715 7.722 5.58245L5.79138 2.85295L5.79138 2.85295L5.79004 2.85107C5.65792 2.6661 5.49129 2.52593 5.28628 2.43026L5.28634 2.43013L5.27525 2.42528C5.08777 2.34326 4.87806 2.29169 4.65817 2.29169C4.03798 2.29169 3.49517 2.56724 3.02082 3.03039C2.59029 3.43389 2.28067 3.8846 2.08528 4.38179C1.88479 4.87914 1.7915 5.40093 1.7915 5.95002C1.7915 6.803 1.99296 7.71093 2.38102 8.62817L2.38126 8.62874C2.77291 9.5513 3.31777 10.5008 4.0038 11.4441C4.68569 12.3817 5.4605 13.2926 6.3112 14.1518L6.31118 14.1518L6.31473 14.1553C7.16544 14.9976 8.08432 15.7804 9.02964 16.4702C9.95631 17.1481 10.9147 17.7018 11.8719 18.1023C13.3625 18.7383 14.8445 18.9247 16.1159 18.3954C16.614 18.1902 17.0493 17.8783 17.4372 17.4439C17.663 17.1979 17.84 16.9314 17.985 16.6225C18.1152 16.3505 18.1832 16.061 18.1832 15.7667C18.1832 15.5635 18.1435 15.3609 18.0484 15.1469L18.0438 15.1366L18.0387 15.1264C17.984 15.0171 17.8836 14.8547 17.6445 14.6901L14.8812 12.7258L14.8812 12.7258L14.8782 12.7237C14.6879 12.5905 14.5057 12.4877 14.3235 12.4127L14.3225 12.4122C14.3068 12.4058 14.2917 12.3992 14.2706 12.3899L14.2687 12.389C14.25 12.3808 14.2236 12.3692 14.1962 12.3582C14.1373 12.3348 14.0494 12.3043 13.9402 12.2954C13.7148 12.2771 13.5199 12.3592 13.3475 12.4632C13.1196 12.5811 12.9312 12.745 12.7558 12.9203C12.7554 12.9207 12.755 12.9211 12.7546 12.9215L12.1259 13.5419C12.1256 13.5422 12.1253 13.5425 12.125 13.5428C12.0895 13.5772 12.0493 13.6066 12.0058 13.631L12.183 13.1716L12.1954 13.1396L12.5843 12.756L12.5843 12.756L12.5867 12.7536C12.8203 12.52 13.0295 12.364 13.2129 12.2691L13.2298 12.2604L13.2461 12.2503C13.557 12.0581 13.9694 12.0105 14.4151 12.1946C14.5985 12.2723 14.8 12.3798 15.02 12.5337C15.0205 12.534 15.021 12.5343 15.0214 12.5346L17.7851 14.4992L17.7851 14.4993L17.7949 14.506C18.0285 14.6638 18.1859 14.8551 18.2786 15.0724C18.3821 15.3362 18.4248 15.564 18.4248 15.7834C18.4248 16.1067 18.3508 16.4347 18.2051 16.7469L18.6582 16.9584L18.2051 16.7469C18.0513 17.0765 17.8629 17.3587 17.6229 17.6205L17.6207 17.6229C17.1897 18.0993 16.7339 18.4264 16.213 18.6362L16.2118 18.6367C15.6969 18.8457 15.1357 18.9584 14.5415 18.9584C13.6797 18.9584 12.7546 18.7524 11.7781 18.3396C10.8183 17.9316 9.84305 17.3685 8.88571 16.6791C7.93153 15.9776 7.00943 15.1943 6.1359 14.3373C5.27175 13.4647 4.48916 12.5435 3.79637 11.5983C3.09809 10.6236 2.54346 9.65681 2.15233 8.73102C1.74045 7.74863 1.5415 6.81457 1.5415 5.95002C1.5415 5.36112 1.64696 4.80658 1.84855 4.29117C2.05331 3.77224 2.38454 3.28374 2.84121 2.85702L2.84134 2.85715L2.85107 2.84754C3.41153 2.29437 4.02272 2.04169 4.65817 2.04169C4.91042 2.04169 5.17098 2.1008 5.38694 2.20243L5.38693 2.20244L5.39031 2.204C5.63827 2.31844 5.83901 2.48516 5.98381 2.70237L5.98784 2.70842L5.99205 2.71434L7.92538 5.43934L7.92536 5.43935L7.9282 5.44328C8.08466 5.65934 8.19495 5.85576 8.26779 6.04118L8.27096 6.04923L8.27439 6.05716C8.36081 6.25659 8.39984 6.43888 8.39984 6.60002C8.39984 6.81638 8.33805 7.03674 8.20442 7.25944L8.20014 7.26658L8.19609 7.27387C8.10029 7.44631 7.94142 7.65134 7.72128 7.87147L7.7212 7.87138L7.71374 7.87918L7.14707 8.47084L6.93845 8.68867L7.03383 8.9748C7.05346 9.0337 7.07472 9.07618 7.08503 9.09677L7.08595 9.09862L7.09216 9.11104L7.09905 9.12309C7.21832 9.33181 7.43812 9.65731 7.83588 10.1243L7.83585 10.1243L7.84022 10.1293C8.25109 10.5988 8.6414 11.0318 9.03417 11.4331L9.0341 11.4332L9.04099 11.4399C9.53481 11.9254 9.95486 12.3203 10.3546 12.6507ZM11.0438 13.4725L11.7988 13.7058C11.6813 13.7283 11.5588 13.7219 11.4526 13.6856L11.2622 13.6009C11.193 13.5633 11.1201 13.5205 11.0438 13.4725Z" fill="#292D32" stroke="#343A40"/>
</svg>
