<svg width="22" height="23" viewBox="0 0 22 23" fill="none" xmlns="http://www.w3.org/2000/svg">
<path d="M3.83159 8.51824L3.8316 8.51825L5.47042 19.7824L5.47048 19.7828C5.63219 20.926 6.6263 21.7887 7.78231 21.7887H14.2753C15.4314 21.7887 16.4254 20.9259 16.5866 19.7861L16.5867 19.7857L18.226 8.51837L3.83159 8.51824ZM3.83159 8.51824C3.76937 8.09074 4.10482 7.70419 4.53582 7.70419H17.5218M3.83159 8.51824L17.5218 7.70419M17.5218 7.70419C17.9525 7.70419 18.2879 8.08975 18.226 8.51829L17.5218 7.70419ZM5.47406 9.12743H5.35845L5.3751 9.24183L6.87926 19.5804C6.87927 19.5804 6.87928 19.5805 6.87929 19.5806C6.94292 20.0297 7.33051 20.3655 7.78227 20.3655H14.2753C14.7268 20.3655 15.1146 20.03 15.1778 19.5837C15.1778 19.5837 15.1778 19.5837 15.1778 19.5836L16.6825 9.24183L16.6991 9.12743H16.5835H5.47406Z" fill="#FA5252" stroke="white" stroke-width="0.2"/>
<path d="M14.1752 4.35788V4.45788H14.2752H17.5217C17.9147 4.45788 18.2333 4.77647 18.2333 5.1695C18.2333 5.56253 17.9147 5.88112 17.5217 5.88112H4.53574C4.14271 5.88112 3.82412 5.56253 3.82412 5.1695C3.82412 4.77647 4.14271 4.45788 4.53574 4.45788H7.78223H7.88223V4.35788V3.54626C7.88223 2.2589 8.92974 1.21139 10.2171 1.21139H11.8403C13.1277 1.21139 14.1752 2.2589 14.1752 3.54626V4.35788ZM12.652 4.45788H12.752V4.35788V3.54626C12.752 3.0435 12.3431 2.63463 11.8403 2.63463H10.2171C9.71434 2.63463 9.30548 3.0435 9.30548 3.54626V4.35788V4.45788H9.40548H12.652Z" fill="#FA5252" stroke="white" stroke-width="0.2"/>
<path d="M8.69375 11.6626C8.69375 11.2696 9.01234 10.951 9.40537 10.951C9.79837 10.951 10.117 11.2696 10.117 11.6626V17.831C10.117 18.224 9.7984 18.5426 9.40537 18.5426C9.01234 18.5426 8.69375 18.224 8.69375 17.831V11.6626Z" fill="#FA5252" stroke="white" stroke-width="0.2"/>
<path d="M11.9398 11.6626C11.9398 11.2696 12.2584 10.951 12.6515 10.951C13.0445 10.951 13.3631 11.2696 13.3631 11.6626V17.831C13.3631 18.224 13.0445 18.5426 12.6515 18.5426C12.2584 18.5426 11.9398 18.224 11.9398 17.831V11.6626Z" fill="#FA5252" stroke="white" stroke-width="0.2"/>
</svg>
