<svg width="61" height="60" viewBox="0 0 61 60" fill="none" xmlns="http://www.w3.org/2000/svg">
<path d="M30.8999 27.175C30.6499 27.15 30.3499 27.15 30.0749 27.175C24.1249 26.975 19.3999 22.1 19.3999 16.1C19.3999 9.975 24.3499 5 30.4999 5C36.6249 5 41.5999 9.975 41.5999 16.1C41.5749 22.1 36.8499 26.975 30.8999 27.175Z" stroke="#343A40" stroke-width="2.5" stroke-linecap="round" stroke-linejoin="round"/>
<path d="M18.3998 36.4C12.3498 40.45 12.3498 47.05 18.3998 51.075C25.2748 55.675 36.5498 55.675 43.4248 51.075C49.4748 47.025 49.4748 40.425 43.4248 36.4C36.5748 31.825 25.2998 31.825 18.3998 36.4Z" stroke="#343A40" stroke-width="2.5" stroke-linecap="round" stroke-linejoin="round"/>
</svg>
