<svg width="20" height="20" viewBox="0 0 20 20" fill="none" xmlns="http://www.w3.org/2000/svg">
<path d="M14.167 17.2084H5.83366C4.40774 17.2084 3.35103 16.7999 2.65075 16.0996C1.95047 15.3993 1.54199 14.3426 1.54199 12.9167V7.08335C1.54199 5.65743 1.95047 4.60073 2.65075 3.90045C3.35103 3.20017 4.40774 2.79169 5.83366 2.79169H14.167C15.5929 2.79169 16.6496 3.20017 17.3499 3.90045C18.0502 4.60073 18.4587 5.65743 18.4587 7.08335V12.9167C18.4587 14.3426 18.0502 15.3993 17.3499 16.0996C16.6496 16.7999 15.5929 17.2084 14.167 17.2084ZM5.83366 3.04169C4.5685 3.04169 3.53163 3.3491 2.81552 4.06522C2.09941 4.78133 1.79199 5.8182 1.79199 7.08335V12.9167C1.79199 14.1818 2.09941 15.2187 2.81552 15.9348C3.53163 16.6509 4.5685 16.9584 5.83366 16.9584H14.167C15.4321 16.9584 16.469 16.6509 17.1851 15.9348C17.9012 15.2187 18.2087 14.1818 18.2087 12.9167V7.08335C18.2087 5.8182 17.9012 4.78133 17.1851 4.06522C16.469 3.3491 15.4321 3.04169 14.167 3.04169H5.83366Z" fill="#292D32" stroke="#343A40"/>
<path d="M8.36595 9.67913L8.36597 9.67911L8.36202 9.67597L5.75587 7.59438C5.69372 7.54298 5.69609 7.46498 5.7297 7.4236C5.78109 7.36036 5.85974 7.36256 5.90135 7.39637L5.90134 7.39638L5.90461 7.39899L8.512 9.48158C8.51217 9.48171 8.51233 9.48184 8.5125 9.48198C8.93376 9.81988 9.47735 9.97289 9.99581 9.97289C10.5143 9.97289 11.0579 9.81987 11.4791 9.48196C11.4793 9.48184 11.4795 9.48171 11.4796 9.48158L14.087 7.39899L14.087 7.399L14.0903 7.39637C14.1445 7.35231 14.2193 7.36783 14.2514 7.41024L14.2566 7.41701L14.2619 7.4236C14.306 7.47783 14.2905 7.55264 14.2481 7.58476L14.248 7.58463L14.2379 7.59263L11.6296 9.67597L11.6296 9.6759L11.6227 9.68155C11.1932 10.0372 10.6033 10.225 9.99998 10.225C9.39752 10.225 8.80565 10.0377 8.36595 9.67913Z" fill="#292D32" stroke="#343A40"/>
</svg>
