<svg width="52" height="52" viewBox="0 0 52 52" fill="none" xmlns="http://www.w3.org/2000/svg">
<rect width="52" height="52" rx="3.5" fill="#F8F9FA"/>
<path d="M26.1596 24.87C26.0596 24.86 25.9396 24.86 25.8296 24.87C23.4496 24.79 21.5596 22.84 21.5596 20.44C21.5596 17.99 23.5396 16 25.9996 16C28.4496 16 30.4396 17.99 30.4396 20.44C30.4296 22.84 28.5396 24.79 26.1596 24.87Z" stroke="#343A40" stroke-width="1.5" stroke-linecap="round" stroke-linejoin="round"/>
<path d="M21.1597 28.56C18.7397 30.18 18.7397 32.82 21.1597 34.43C23.9097 36.27 28.4197 36.27 31.1697 34.43C33.5897 32.81 33.5897 30.17 31.1697 28.56C28.4297 26.73 23.9197 26.73 21.1597 28.56Z" stroke="#343A40" stroke-width="1.5" stroke-linecap="round" stroke-linejoin="round"/>
</svg>
