<svg width="50" height="50" viewBox="0 0 50 50" fill="none" xmlns="http://www.w3.org/2000/svg">
<circle cx="25" cy="25" r="25" fill="#398378"/>
<path d="M25 15C26.3261 15 27.5979 15.5268 28.5355 16.4645C29.4732 17.4021 30 18.6739 30 20C30 21.3261 29.4732 22.5979 28.5355 23.5355C27.5979 24.4732 26.3261 25 25 25C23.6739 25 22.4021 24.4732 21.4645 23.5355C20.5268 22.5979 20 21.3261 20 20C20 18.6739 20.5268 17.4021 21.4645 16.4645C22.4021 15.5268 23.6739 15 25 15ZM25 17.5C24.337 17.5 23.7011 17.7634 23.2322 18.2322C22.7634 18.7011 22.5 19.337 22.5 20C22.5 20.663 22.7634 21.2989 23.2322 21.7678C23.7011 22.2366 24.337 22.5 25 22.5C25.663 22.5 26.2989 22.2366 26.7678 21.7678C27.2366 21.2989 27.5 20.663 27.5 20C27.5 19.337 27.2366 18.7011 26.7678 18.2322C26.2989 17.7634 25.663 17.5 25 17.5ZM25 26.25C28.3375 26.25 35 27.9125 35 31.25V35H15V31.25C15 27.9125 21.6625 26.25 25 26.25ZM25 28.625C21.2875 28.625 17.375 30.45 17.375 31.25V32.625H32.625V31.25C32.625 30.45 28.7125 28.625 25 28.625Z" fill="white"/>
</svg>
